<?xml version="1.0" standalone="no"?>
<!DOCTYPE svg PUBLIC "-//W3C//DTD SVG 20010904//EN"
 "http://www.w3.org/TR/2001/REC-SVG-20010904/DTD/svg10.dtd">
<svg version="1.0" xmlns="http://www.w3.org/2000/svg"
 width="356.000000pt" height="80.000000pt" viewBox="0 0 356.000000 80.000000"
 preserveAspectRatio="xMidYMid meet">
<metadata>
Created by potrace 1.15, written by Peter Selinger 2001-2017
</metadata>
<g transform="translate(0.000000,80.000000) scale(0.100000,-0.100000)"
fill="#000000" stroke="none">
<path d="M126 745 c-12 -12 -17 -31 -16 -59 3 -64 2 -66 -28 -66 -16 0 -37 -6
-48 -14 -17 -13 -19 -30 -22 -158 -2 -79 -1 -193 3 -255 l7 -111 50 -22 c28
-12 65 -24 82 -27 51 -8 453 92 486 122 30 27 158 220 165 248 6 21 1 33 -23
57 -28 27 -36 30 -96 30 l-66 0 0 38 c0 66 -13 74 -136 81 l-109 6 -5 57 c-3
31 -10 62 -15 67 -6 6 -56 14 -111 17 -88 6 -102 5 -118 -11z m214 -40 c6 -3
10 -35 10 -71 l0 -64 104 0 c124 0 136 -3 136 -40 0 -37 -14 -40 -186 -40
-141 0 -142 0 -172 -28 -16 -15 -45 -57 -63 -92 l-34 -65 -3 113 c-3 128 4
149 51 154 32 3 32 3 35 63 4 88 4 89 62 82 28 -3 55 -9 60 -12z m420 -326 c0
-15 -104 -159 -139 -193 -22 -21 -58 -33 -211 -66 -102 -22 -190 -42 -196 -44
-6 -2 -16 -1 -22 3 -14 9 116 227 152 255 20 15 61 23 203 37 227 21 213 21
213 8z"/>
<path d="M1869 727 c-23 -15 -46 -47 -69 -95 -19 -39 -50 -84 -69 -100 -33
-27 -33 -29 -18 -53 14 -22 13 -30 -5 -91 -24 -78 -19 -115 17 -124 36 -9 51
8 82 93 27 72 37 88 93 133 23 19 24 21 8 34 -22 16 -23 45 -3 93 27 63 41 73
108 73 64 0 101 19 90 46 -4 11 -28 14 -103 14 -85 0 -101 -3 -131 -23z"/>
<path d="M910 625 l0 -25 423 2 c414 3 422 3 422 23 0 20 -8 20 -422 23 l-423
2 0 -25z"/>
<path d="M2120 625 l0 -25 708 2 c699 3 707 3 707 23 0 20 -8 20 -707 23
l-708 2 0 -25z"/>
<path d="M2033 535 c-23 -18 -48 -35 -55 -38 -10 -3 -9 -11 5 -36 17 -30 18
-35 3 -78 -36 -107 -18 -125 125 -121 99 3 104 4 107 26 3 20 0 22 -46 22 -72
0 -82 6 -82 49 0 62 25 84 123 105 43 10 36 42 -11 50 -28 4 -42 13 -50 31
-17 37 -65 33 -119 -10z"/>
<path d="M954 516 c-35 -15 -74 -60 -74 -85 0 -9 7 -27 16 -39 13 -18 25 -22
73 -22 31 0 65 -6 75 -13 33 -24 -6 -41 -110 -47 -51 -3 -98 -10 -105 -17 -26
-26 3 -33 129 -33 120 0 129 1 165 26 44 29 62 66 47 94 -15 28 -42 39 -110
47 -33 3 -63 9 -65 13 -12 20 33 34 125 39 103 6 116 11 107 36 -5 12 -27 15
-124 15 -76 -1 -129 -6 -149 -14z"/>
<path d="M1350 511 c-50 -26 -92 -99 -98 -168 -6 -77 3 -83 137 -83 l105 0 47
49 c69 72 92 174 47 205 -34 24 -192 22 -238 -3z m168 -94 c3 -30 -2 -43 -27
-67 -24 -24 -38 -30 -74 -30 -66 0 -77 7 -77 47 0 25 8 43 30 64 27 27 35 30
87 27 l58 -3 3 -38z"/>
<path d="M2395 518 c-63 -35 -115 -123 -115 -195 0 -57 14 -63 154 -63 127 0
146 4 146 30 0 13 -12 19 -52 24 -29 3 -70 6 -90 6 -38 0 -38 0 -38 40 0 32 7
48 34 77 33 37 34 37 120 38 65 0 90 4 102 17 9 9 13 21 10 27 -10 15 -244 14
-271 -1z"/>
<path d="M2795 518 c-86 -47 -146 -195 -98 -243 13 -14 34 -16 122 -13 98 3
109 5 143 31 20 16 46 48 57 71 23 47 28 135 9 154 -15 15 -205 16 -233 0z
m155 -88 c0 -38 -24 -86 -49 -100 -30 -15 -107 -12 -121 5 -17 20 -5 73 22
102 18 19 32 23 85 23 l63 0 0 -30z"/>
<path d="M3209 507 c-48 -32 -96 -100 -104 -147 -9 -56 9 -100 42 -100 33 0
47 16 68 80 29 91 53 129 78 130 5 0 7 -21 5 -47 -2 -38 0 -48 14 -51 12 -2
25 12 43 47 26 52 55 68 55 31 0 -11 -11 -48 -25 -82 -33 -80 -33 -108 -1
-108 52 0 128 101 142 187 5 34 2 45 -15 62 -19 19 -32 21 -145 21 -111 0
-126 -2 -157 -23z"/>
</g>
</svg>
